Coordinates
version=1
nRows=12
nColumns=33
inDegrees=yes

Units are S.I. units (second, meters, Newtons, ...)
Angles are in degrees.

endheader
time	ground_thorax_rot_x	ground_thorax_rot_y	ground_thorax_rot_z	ground_thorax_tx	ground_thorax_ty	ground_thorax_tz	clav_prot_r	clav_elev_r	scapula_abduction_r	scapula_elevation_r	scapula_upward_rot_r	scapula_winging_r	shoulder_elv_r	plane_of_elev_r	axial_rot_r	elbow_flexion_r	pro_sup_r	wrist_flex_r	wrist_dev_r	clav_prot_l	clav_elev_l	scapula_abduction_l	scapula_elevation_l	scapula_upward_rot_l	scapula_winging_l	shoulder_elv_l	plane_of_elev_l	axial_rot_l	elbow_flexion_l	pro_sup_l	wrist_flex_l	wrist_dev_l
      5.23000000	     25.75618664	     31.73264745	     48.68889752	    -21.07913690	    819.77980173	    -38.25289954	     13.46365251	     35.24061653	     30.26041205	     45.00000000	    -45.00000000	   2434.52921350	    791.28617848	     22.44078156	   -168.91546434	   3599.16597116	    166.06164721	     13.13395498	     15.49451930	     -9.45828478	    -45.00000000	    -37.75077091	     45.00000000	    -45.00000000	   2620.81941594	  -3883.18185338	     26.52919586	     35.17108890	    349.44272152	     44.42040342	     14.06484246	    -17.22791933
      5.24000000	     25.65060114	     31.94153181	     49.03834995	    -17.91042010	    817.79054330	    -38.00582736	     13.46363737	     35.32642111	     30.23953532	     45.00000000	    -45.00000000	   2434.74488440	    791.18987243	     22.40721740	   -168.83121062	   3599.22500259	    166.71128630	     13.09012768	     15.40982713	     -9.71018673	    -45.00000000	    -37.54008752	     45.00000000	    -45.00000000	   2620.66576169	  -3883.36758480	     26.44032612	     34.91573190	    349.40422959	     44.61438896	     13.97795434	    -17.06253891
      5.25000000	     25.51357862	     32.17824928	     49.42069736	    -14.78161509	    815.82240439	    -37.75469631	     13.44805109	     35.38598082	     30.17412362	     45.00000000	    -45.00000000	   2434.97932745	    791.12282125	     22.35287039	   -168.76110305	   3599.28582585	    167.38519151	     13.04381042	     15.32348741	     -9.92428923	    -45.00000000	    -37.33591825	     45.00000000	    -45.00000000	   2620.51474308	  -3883.55833299	     26.33685508	     34.59932618	    349.37791161	     44.82736872	     13.87473682	    -16.89717402
      5.26000000	     25.39254617	     32.40218647	     49.77079175	    -11.70302654	    813.87645302	    -37.50401191	     13.45352931	     35.44007516	     30.12230235	     45.00000000	    -45.00000000	   2435.17913191	    791.02277970	     22.33275334	   -168.73609064	   3599.37214959	    168.09180343	     13.00838553	     15.22817414	    -10.16510684	    -45.00000000	    -37.13265908	     45.00000000	    -45.00000000	   2620.38269995	  -3883.74091344	     26.26290252	     34.33867618	    349.32757872	     45.06324013	     13.77072589	    -16.73802003
      5.27000000	     25.26512150	     32.63616606	     50.11068271	     -8.68474651	    811.95548932	    -37.25839906	     13.44248553	     35.49551579	     30.04713153	     45.00000000	    -45.00000000	   2435.39741314	    790.95535663	     22.29616090	   -168.65357890	   3599.45431467	    168.82632445	     12.97605647	     15.11700704	    -10.39216152	    -45.00000000	    -36.93061187	     45.00000000	    -45.00000000	   2620.22726118	  -3883.91045708	     26.17849844	     34.07670488	    349.29059382	     45.31618143	     13.65187410	    -16.57975909
      5.28000000	     25.16098039	     32.84543455	     50.43747297	     -5.73182995	    810.06152689	    -37.02109143	     13.44728769	     35.54794981	     30.00940298	     45.00000000	    -45.00000000	   2435.56470486	    790.83189630	     22.27370694	   -168.62242735	   3599.53949752	    169.57417799	     12.95918425	     15.01450721	    -10.62822423	    -45.00000000	    -36.71553820	     45.00000000	    -45.00000000	   2620.12870724	  -3884.09578058	     26.10480353	     33.86750085	    349.22204475	     45.59631526	     13.55370655	    -16.44858098
      5.29000000	     25.05576977	     33.05803284	     50.76026283	     -2.85383527	    808.20168488	    -36.79413896	     13.40581522	     35.61117358	     29.92916501	     45.00000000	    -45.00000000	   2435.80417016	    790.78756429	     22.21677269	   -168.45256627	   3599.60427161	    170.31609943	     12.93255341	     14.90200229	    -10.83753053	    -45.00000000	    -36.51286568	     45.00000000	    -45.00000000	   2620.00122160	  -3884.27794384	     25.99002456	     33.60220573	    349.18520335	     45.88693914	     13.43437312	    -16.31824420
      5.30000000	     24.94863063	     33.26820643	     51.04153090	     -0.05259876	    806.37953880	    -36.57733032	     13.38879791	     35.66666438	     29.82700780	     45.00000000	    -45.00000000	   2436.03562464	    790.77341983	     22.16851421	   -168.29571432	   3599.67613062	    171.01755938	     12.89257945	     14.79895580	    -11.04693656	    -45.00000000	    -36.34606618	     45.00000000	    -45.00000000	   2619.85934127	  -3884.44841532	     25.89676854	     33.30502357	    349.13244278	     46.19366982	     13.30415746	    -16.18209519
      5.31000000	     24.83066096	     33.47680133	     51.35792290	      2.67534214	    804.59169149	    -36.36822667	     13.40849074	     35.68199107	     29.76908726	     45.00000000	    -45.00000000	   2436.20489398	    790.66495601	     22.13331150	   -168.25011969	   3599.76955499	    171.69247199	     12.86620318	     14.68666059	    -11.26915556	    -45.00000000	    -36.13222352	     45.00000000	    -45.00000000	   2619.77642301	  -3884.62097685	     25.83156322	     33.10930136	    349.06956744	     46.51423518	     13.18820993	    -16.06764972
      5.32000000	     24.73225668	     33.68233707	     51.62733328	      5.33543398	    802.83273068	    -36.16435680	     13.38372910	     35.73710170	     29.69663250	     45.00000000	    -45.00000000	   2436.37494852	    790.58851364	     22.08226953	   -168.05111296	   3599.84171416	    172.37766257	     12.84886741	     14.55674588	    -11.47912926	    -45.00000000	    -35.92545173	     45.00000000	    -45.00000000	   2619.66675069	  -3884.77706237	     25.74830414	     32.88313827	    349.01251628	     46.85391727	     13.07478453	    -15.96243691
      5.33000000	     24.61824965	     33.92227040	     51.79671130	      7.93710071	    801.09302870	    -35.96379343	     13.34137833	     35.80300955	     29.34704205	     45.00000000	    -45.00000000	   2436.70700293	    790.73415336	     22.00899053	   -167.68519424	   3599.75006143	    172.99609407	     12.81059793	     14.45032287	    -11.65571666	    -45.00000000	    -35.76371045	     45.00000000	    -45.00000000	   2619.38668294	  -3884.98239571	     25.61278133	     32.40101607	    349.04534467	     47.16489814	     12.88248495	    -15.81689470
      5.34000000	     24.38949998	     34.16138500	     52.23774407	     10.48056249	    799.37202510	    -35.76714409	     13.44348245	     35.69122679	     29.15137133	     45.00000000	    -45.00000000	   2436.85594894	    790.64612204	     22.05376763	   -167.55729491	   3599.94864620	    173.50216224	     12.73278768	     14.23332054	    -11.85546550	    -45.00000000	    -35.55747441	     45.00000000	    -45.00000000	   2619.30489345	  -3885.09222303	     25.48609168	     31.93327928	    348.98819435	     47.49276835	     12.69958459	    -15.62769821
